<svg data-name="Layer 1" xmlns="http://www.w3.org/2000/svg" viewBox="0 0 140.35 135.98"><defs><style>.dm-icon-fish-1{fill:#00ada9;}.dm-icon-fish-2{fill:#fff;}</style></defs><circle class="dm-icon-fish-1" cx="70.18" cy="67.99" r="56.75"/><path class="dm-icon-fish-2" d="M45.8,60.88c2.54-1.6,5.09-3,3.67-6.7-.34-.9.3-1.9.87-2.76A43.86,43.86,0,0,1,69.56,35c1.58-.7,2.3-.34,3.15.93a44.89,44.89,0,0,1,4.83,8.87,3.36,3.36,0,0,0,3.39,2.45c13.35,1.16,22.73,8,28.22,20.21a3.88,3.88,0,0,1-.57,4.36A35.12,35.12,0,0,1,91.4,84.63,4.29,4.29,0,0,0,88.19,88a22.43,22.43,0,0,1-4.11,7.53C83,96.94,82,97,80.55,96.2a8.93,8.93,0,0,1-5-7.59c-.11-1.4-.32-2-1.91-2.22C64,85.1,55.33,81.25,47.27,76c-1.53-1-2.25-.94-3.44.53a16.79,16.79,0,0,1-12.69,6.27c-.79,0-1.67.2-2.09-.71-.35-.76.21-1.33.63-1.87,2.79-3.61,3.4-8.22,5.56-12.13a1.42,1.42,0,0,0,0-1.42c-2.11-3.93-2.76-8.52-5.54-12.15-.4-.52-1-1.09-.58-1.86s1.34-.73,2.12-.68A17.64,17.64,0,0,1,45.8,60.88ZM79.06,50C66.25,50.52,55.9,56,46.86,64.26c-1.92,1.76-1.73,6.76.25,8.11C55.41,78,64.35,82.2,74.42,83.53a2.79,2.79,0,0,0,2.72-.66c2.71-2.73,6.27-3.64,10-4.14,1.46-.2,2.59-.15,2.42,1.85-.16,1.79,1,1.31,1.92.92a34,34,0,0,0,14-10.35,3.21,3.21,0,0,0,.37-4C100.15,56.1,91.06,50.61,79.06,50Z"/><path class="dm-icon-fish-2" d="M94.42,65.48c.09-2,1.15-3.22,3.1-3.33a3.28,3.28,0,1,1,.07,6.56C95.62,68.67,94.57,67.44,94.42,65.48Z"/></svg>