<svg data-name="Layer 1" xmlns="http://www.w3.org/2000/svg" viewBox="0 0 140.35 135.98"><defs><style>.dm-icon-molluscs-1{fill:#93d1d5;}.dm-icon-molluscs-2{fill:#fff;}</style></defs><circle class="dm-icon-molluscs-1" cx="68.78" cy="67.99" r="56.75"/><path class="dm-icon-molluscs-2" d="M77.69,104.06a11.55,11.55,0,0,0-6.25,1.09,4.93,4.93,0,0,1-4.38.11c-2.85-1.45-5.82-1.18-8.8-1.19-7.13,0-10.42-2.8-10.65-9.81-.12-3.24-1.26-4.47-4.26-5.35-10.5-3.08-15-12.28-11.21-22.53.23-.63.86-1.2.49-1.93-3.83-7.55-1.51-12.7,3.49-16.84,3-2.43,8.41-3.11,8.41-3.11C47,35.05,61.22,31.37,69.65,34.36c7.59-1.84,16.13-.46,22,5.84,1.37,1.47,1.54,4.38,1.54,4.38A36.36,36.36,0,0,1,99.5,48c6.36,4.64,7.4,11,7.24,12.44.05,2.88-1.28,2.77-1.26,4.41,0,2,1.31,3.84,1.59,5.68,1.26,8.42-3.3,15.81-11.83,18.23-3.74,1.07-5.1,2.58-5.12,6.53C90.08,101.44,86.13,104.07,77.69,104.06ZM35.77,67.34c-3.92,8.35-.41,15,7,17.84,2.68,1,5.51,1.67,8.28,2.49A20.58,20.58,0,0,1,64,97.9c3.2,5.89,6.89,6,10.09.14S82,89,88.2,87.35a42,42,0,0,0,8.53-2.82,13,13,0,0,0,6.69-15.2c-.61-2.18-1.34-2.3-2.85-.68-1.73,1.85-3.66,3.52-5.49,5.28-.88.85-1.84,1.7-2.94.52s-.37-2.11.54-3c2.25-2.16,4.48-4.34,6.73-6.5,4.67-4.46,5-5.95,1.77-11.18a13.22,13.22,0,0,0-5.84-5c-2.7-1-3.85-.28-4.93,2.39-1.87,4.6-3.86,9.14-5.86,13.68-.53,1.19-1,3-2.84,2.12s-.82-2.38-.3-3.59C83.83,57.79,87,50.49,89.58,45c1-2.06-.8-3.53-2.3-4.61C83.43,37.58,80,36.2,73.84,36.51c-2.78.41-3.27.89-3.2,3.84.17,7,.06,14.09,0,21.14,0,1.14.24,2.6-1.11,3-2.38.71-2.31-1.12-2.31-2.66,0-7.28,0-14.56,0-21.84,0-1.53.33-2.86-2.14-3.23-6.41-1-13.21,1.11-16.2,5.09-1.5,2-.89,2.63.12,4.77C51.7,52.25,54,58,56.5,63.74c.52,1.19,1.23,2.53-.4,3.28s-2.14-.65-2.66-1.85c-2.06-4.76-4.23-9.47-6.2-14.27-1-2.45-1.44-3-2.48-2.94-6.86.87-11.33,4.53-10.87,11.67,0,0,0,1.92,11,11.67,0,0,2.1,1.85.74,3.17s-2.37.16-3.2-.78Zm25.45,33.25A14.63,14.63,0,0,0,52.84,92c-.64-.28-1.64-1.22-2,.52A6.42,6.42,0,0,0,57,100.58C58.22,100.63,59.48,100.59,61.22,100.59Zm16-.36c7.59,1.21,10.21-1.13,9.39-8.42A12.33,12.33,0,0,0,77.24,100.23Z"/></svg>