<svg data-name="Layer 1" xmlns="http://www.w3.org/2000/svg" viewBox="0 0 140.35 135.98"><defs><style>.dm-icon-dairy-1{fill:#3ca9c2;}.dm-icon-dairy-2{fill:#fff;}</style></defs><circle class="dm-icon-dairy-1" cx="69.82" cy="67.99" r="56.75"/><path class="dm-icon-dairy-2" d="M47.65,75.37c0-6.72,0-13.44,0-20.16A6,6,0,0,1,49.06,51c1.36-1.58,2.43-3.41,3.8-5,2.62-3,4.36-6.17,3.66-10.3-.29-1.73.51-2.45,2.3-2.44,7.54,0,15.08,0,22.61,0,1.36,0,2.53.35,2.23,1.95-.9,4.92,1.42,8.62,4.54,11.88,3.64,3.81,4.59,8.16,4.44,13.34-.33,11.62-.15,23.25,0,34.88,0,2.24-.65,3-2.92,3q-19.62-.14-39.24,0c-2.38,0-2.87-.87-2.83-3C47.73,88.63,47.65,82,47.65,75.37Zm5.41-20.53c1.46,2,3.26,1.91,4.87,2.29,2.31.54,4,1.82,4.14,4.39s-1.25,3.62-3.5,4a2.68,2.68,0,0,0-2.36,2.85,2.86,2.86,0,0,1-2.44,2.89c-3.48.48-4,2.62-3.59,5.53a23.77,23.77,0,0,1,0,3.27c0,4,.27,4.21,3.73,2.28,1.23-.68,2.42-.92,3.47.19a2.65,2.65,0,0,1,.08,3.52,17,17,0,0,1-1.82,2c-.36.38-1,.69-.75,1.32s.88.43,1.39.51c2.66.4,3.4,2.12,1.94,4.41-.27.41-1.05.53-.74,1.32,4.24,0,8.5-.07,12.75,0,1.63,0,2-.58,2-2q-.06-18.39,0-36.78c0-1.54-.44-2.07-2-2.06C64.68,54.88,59.14,54.84,53.06,54.84ZM90,85.73c-.59-4.67,1-8.78-2-12.67-1.45-1.86-2.68-3-5-3a14.52,14.52,0,0,1-4-.47c-1.41-.45-2.61-1.61-1.17-3,1.67-1.63,1.66-2.78-.17-4.13a1.59,1.59,0,0,1-.75-1.88,1.88,1.88,0,0,1,2-1.14,5,5,0,0,1,3.13.74c1.25.89,2.21,1.14,3-.48a1.75,1.75,0,0,1,2.07-.93,2.14,2.14,0,0,1,1.61,2c.14.77-.46,1.88.65,2.19,2.78-8.18-2.55-13.27-7-18.74-5.17,5.43-8.44,11.1-7.78,19.12.81,9.92.18,20,.2,29.94,0,1.06-.52,2.51,1.51,2.48,4.09-.06,8.17,0,12.26,0,.72,0,1.3-.13,1.2-1-.12-1.14-.83-.54-1.39-.45a8.55,8.55,0,0,1-8.6-3.48c-1.2-1.5-1.35-3,.7-4,1.77-.85,1.84-1.68,0-2.46-1.59-.7-2.84-1.7-2-3.5s2.51-1.41,4-.93C85.52,80.73,87.49,83,90,85.73Zm-28-33.54c3.52,0,6.42,0,9.32,0,.61,0,1.31.22,1.77-.39C75.16,49,77.29,46.13,79.67,43H69.82c.12,1.19,1.11,3.13-1.09,2.72-2.93-.55-3.68,1-4.32,3.16A7.58,7.58,0,0,1,61.92,52.19ZM59.46,35.91l-.29.82c2.63.42,3.88,3.36,6.54,3.47,4.62.19,9.26,0,13.88.06,1.6,0,1.51-.93,1.42-1.94s.58-2.4-1.26-2.4C73,35.9,66.22,35.91,59.46,35.91ZM60,52.15c-3-1.78-2.69-4.35-3-7.27-1.94,2.66-3.54,4.83-5.33,7.27Z"/><path class="dm-icon-dairy-2" d="M64.16,81a5,5,0,0,1-3.69-1.51c-.92-1-1.48-2.13-.68-3.42s2-1,3-.33a2.15,2.15,0,0,0,2.51-.11c1.14-.69,2.35-1.18,3.26.34s.23,2.57-.76,3.64S65.45,80.76,64.16,81Z"/></svg>