<svg data-name="Layer 1" xmlns="http://www.w3.org/2000/svg" viewBox="0 0 140.35 135.98"><defs><style>.dm-icon-egg-1{fill:#fcbf00;}.dm-icon-egg-2{fill:#f7fafb;}</style></defs><circle class="dm-icon-egg-1" cx="69.82" cy="67.99" r="56.75"/><path class="dm-icon-egg-2" d="M44,70c.57-12,4.06-22.9,13.41-31.1,8-7,17.92-6.74,25.72.58,7.42,7,11.06,15.79,12.33,25.73,1.05,8.22.05,16.08-5,22.9-6.62,9-16,11.58-26.45,9.48-10.12-2-16.37-8.69-19-18.67A34.18,34.18,0,0,1,44,70Zm48.55,1.83c-.07-11-3.26-20.21-8.73-27C76,34.92,65.07,34.35,57,43.71c-8.18,9.54-11.39,20.78-9,33.17A22.38,22.38,0,0,0,82.74,91.22C90.2,86.21,92.51,78.6,92.58,71.78Z"/><path class="dm-icon-egg-2" d="M71.45,41a1.54,1.54,0,0,1-1.52,1.63c-4.8.4-7.8,3.51-10.56,7-.74.92-1.4,2.2-2.75,1.25-1.54-1.07-.48-2.27.28-3.26,3-3.95,6.45-7.38,11.75-8C70.56,39.35,71.33,39.79,71.45,41Z"/></svg>