<svg data-name="Layer 1" xmlns="http://www.w3.org/2000/svg" viewBox="0 0 140.35 135.98"><defs><style>.dm-icon-gluten-1{fill:#edca67;}.dm-icon-gluten-2{fill:#fff;}</style></defs><circle class="dm-icon-gluten-1" cx="70.18" cy="67.99" r="56.75"/><path class="dm-icon-gluten-2" d="M82.2,68.39a29.25,29.25,0,0,1-5.42,2.27c-5,1-5.71-.72-5.12-6,.84-7.55,4.55-12.73,12-14.93a48.32,48.32,0,0,0,8.44-3.51c3.44-1.78,4.77-.89,4.46,3-.34,4.37-.12,9.37-3.32,12.52C89.41,65.53,82.2,68.39,82.2,68.39Zm9.43-16.82c-13.24,4.49-15.06,6.13-15.1,13.37C88.83,62,91,60.16,91.63,51.57Z"/><path class="dm-icon-gluten-2" d="M82.2,87.1a29.25,29.25,0,0,1-5.42,2.27c-5,1-5.71-.72-5.12-6,.84-7.55,4.55-12.72,12-14.93a48.32,48.32,0,0,0,8.44-3.51c3.44-1.78,4.77-.89,4.46,3-.34,4.36-.12,9.36-3.32,12.51C89.41,84.25,82.2,87.1,82.2,87.1Zm9.43-16.82c-13.24,4.49-15.06,6.13-15.1,13.37C88.83,80.73,91,78.87,91.63,70.28Z"/><path class="dm-icon-gluten-2" d="M62,38.35c.33-4.08,4.65-7.82,8.26-11.91,1-1.16,2.4-.28,3.3.9,1.84,2.44,4,4.7,5.54,7.28,4,6.58.84,15.77-6.25,18.76a3.41,3.41,0,0,1-2.91,0C65.3,51.38,61.69,45.55,62,38.35ZM76.61,41c0-2.74-3.83-9-5.43-8.86s-4.93,6.27-5,8.76c0,3,3.09,7.85,5.09,7.9S76.59,44,76.61,41Z"/><path class="dm-icon-gluten-2" d="M82.2,106.16a29.25,29.25,0,0,1-5.42,2.27c-5,1-5.71-.72-5.12-6,.84-7.55,4.55-12.73,12-14.93A47.6,47.6,0,0,0,92.08,84c3.44-1.78,4.77-.89,4.46,3-.34,4.36-.12,9.36-3.32,12.52C89.41,103.3,82.2,106.16,82.2,106.16Zm9.43-16.82c-13.24,4.49-15.06,6.13-15.1,13.36C88.83,99.79,91,97.92,91.63,89.34Z"/><path class="dm-icon-gluten-2" d="M49.66,61.78c-3.21-3.15-3-8.15-3.32-12.52-.31-3.93,1-4.82,4.46-3a48.54,48.54,0,0,0,8.43,3.51c7.43,2.2,11.14,7.38,12,14.93.59,5.28-.15,7-5.12,6a29.45,29.45,0,0,1-5.41-2.27S53.47,65.53,49.66,61.78Zm16.68,3.16c0-7.24-1.86-8.88-15.1-13.37C51.86,60.16,54,62,66.34,64.94Z"/><path class="dm-icon-gluten-2" d="M49.66,80.49c-3.21-3.15-3-8.15-3.32-12.51-.31-3.94,1-4.83,4.46-3a48.54,48.54,0,0,0,8.43,3.51c7.43,2.21,11.14,7.38,12,14.93.59,5.28-.15,7-5.12,6a29.45,29.45,0,0,1-5.41-2.27S53.47,84.25,49.66,80.49Zm16.68,3.16c0-7.24-1.86-8.88-15.1-13.37C51.86,78.87,54,80.73,66.34,83.65Z"/><path class="dm-icon-gluten-2" d="M49.66,99.55c-3.21-3.16-3-8.16-3.32-12.52-.31-3.94,1-4.83,4.46-3a47.82,47.82,0,0,0,8.43,3.52c7.43,2.2,11.14,7.38,12,14.93.59,5.28-.15,7-5.12,6a29.45,29.45,0,0,1-5.41-2.27S53.47,103.3,49.66,99.55Zm16.68,3.15c0-7.23-1.86-8.87-15.1-13.36C51.86,97.92,54,99.79,66.34,102.7Z"/></svg>