<svg data-name="Layer 1" xmlns="http://www.w3.org/2000/svg" viewBox="0 0 140.35 135.98"><defs><style>.dm-icon-tree-nuts-1{fill:#8f4028;}.dm-icon-tree-nuts-2{fill:#fff;}</style></defs><circle class="dm-icon-tree-nuts-1" cx="70.18" cy="67.99" r="56.75"/><path class="dm-icon-tree-nuts-2" d="M73.14,34.81c15.89,0,27.37,11.43,27.94,26.91a44.69,44.69,0,0,1-5,21.81c-2.22,4.47-4.66,8.84-5.38,13.88-.21,1.42-1.07,2-2.35,1.6-5.69-1.84-11.53-.93-17.31-1.12-8.31-.29-16.14-2.16-23-7.11-13.92-10-16.25-27.86-4.75-40.58A48.65,48.65,0,0,1,68.13,35.34,13.73,13.73,0,0,1,70.24,35C71.45,34.86,72.68,34.83,73.14,34.81Zm9.17,56.94a100.53,100.53,0,0,1-8.83-13.2c-.55-1-.91-2,.27-2.63s1.84.2,2.37,1.14c.35.62.71,1.23,1.07,1.85A92,92,0,0,0,88.43,94.22,58.8,58.8,0,0,0,83.05,80.6c-1-1.89-2.15-3.7-3.19-5.57a1.49,1.49,0,0,1,.38-2.15,1.45,1.45,0,0,1,2.12.53,20.72,20.72,0,0,1,1.48,2.32c1.81,3.43,3.58,6.88,5.36,10.32a16.46,16.46,0,0,0-.67-4.84,54.7,54.7,0,0,0-7-15.83c-.65-1-1.35-2.07,0-2.91s2,.32,2.59,1.29l1.29,2.08a63.13,63.13,0,0,1,6.94,17.62c1.47-1.14,1.49-2.54,1.58-3.94a41,41,0,0,0-7.78-27.06c-.72-1-2.2-2.19-.54-3.33s2.32.63,3,1.64A45.28,45.28,0,0,1,95.73,66.2c.44,1.69.25,3.6,1.44,5.32A33.12,33.12,0,0,0,96.81,55c-2.54-8.91-10.44-16-19-16.94-1.54-.17-4.07-.23-4.08,1,0,3.4-2.15,4.75-4.25,6.68-1,.92-2.73,1.63-3.06,3.12-.79,3.56-3.1,4.83-6.48,5.3a4,4,0,0,0-3.14,2.56c-.17.53-.35,1.33-1.11,1.27-3.6-.29-6.12,2.89-9.9,2.79-1.72,0-3.42.78-5-.73C34,76.45,48,94.23,69.61,94.6c0-.1,0-.25,0-.29-.45-.39-.91-.77-1.39-1.13a44.69,44.69,0,0,1-12-13.31c-.63-1.09-1.9-2.38-.09-3.34,1.56-.83,2,.77,2.65,1.77a42.64,42.64,0,0,0,16.1,15.53c1,.54,1.94,1.48,3.75.43-2.44-2.3-4.79-4.39-7-6.63-.89-.91-2.68-2.1-1-3.5,1.41-1.18,2.32.49,3.18,1.43,3,3.32,6.07,6.59,9.93,9a3.54,3.54,0,0,0,.67.25M42.35,56.61c.44,1.15,1.12,1.12,2.17,1.09,4.17-.12,7.11-2.92,10.61-4.49,1.83-.82,3-3,5.55-2.51.77.14,2-.87,2.47-1.94a13.69,13.69,0,0,1,6.26-7c1.17-.67,1.08-1.57.83-2.61s-.88-1.19-1.82-.89c-10.1,3.23-18.92,8.33-25.29,17.07C42.84,55.77,42.6,56.22,42.35,56.61Z"/></svg>